<?xml version="1.0" standalone="no"?>
<!DOCTYPE svg PUBLIC "-//W3C//DTD SVG 20010904//EN"
 "http://www.w3.org/TR/2001/REC-SVG-20010904/DTD/svg10.dtd">
<svg version="1.0" xmlns="http://www.w3.org/2000/svg"
 width="1280.000000pt" height="960.000000pt" viewBox="0 0 1280.000000 960.000000"
 preserveAspectRatio="xMidYMid meet">
<metadata>
Created by potrace 1.15, written by Peter Selinger 2001-2017
</metadata>
<g transform="translate(0.000000,960.000000) scale(0.100000,-0.100000)"
fill="#000000" stroke="none">
<path d="M4745 8944 c-613 -76 -1168 -310 -1649 -696 -130 -105 -359 -334
-464 -464 -464 -579 -712 -1270 -712 -1990 l0 -191 -97 -37 c-875 -340 -1555
-1132 -1757 -2046 -47 -214 -58 -315 -63 -575 -7 -351 24 -599 113 -891 335
-1110 1283 -1905 2430 -2039 113 -13 609 -15 4009 -15 3428 0 3895 2 4005 15
744 92 1411 509 1826 1140 216 329 350 695 399 1085 20 164 20 481 -1 642 -60
477 -248 917 -551 1293 -97 120 -296 316 -413 407 -279 216 -621 384 -948 464
-93 23 -112 30 -106 43 21 50 58 182 82 291 25 117 27 140 27 380 0 240 -2
263 -28 381 -83 388 -255 707 -527 979 -272 272 -591 444 -979 527 -118 26
-142 28 -376 28 -223 0 -263 -3 -365 -23 -217 -44 -432 -125 -610 -229 -86
-51 -95 -55 -105 -38 -49 85 -200 301 -271 390 -114 142 -339 366 -479 478
-460 368 -958 586 -1550 679 -175 27 -660 34 -840 12z m1150 -2394 c41 -19
242 -215 1141 -1114 880 -880 1096 -1101 1115 -1141 34 -71 34 -199 1 -267
-29 -58 -88 -121 -140 -147 -73 -37 -147 -41 -809 -41 l-642 0 -3 -1147 c-3
-886 -6 -1156 -16 -1185 -31 -92 -124 -183 -215 -210 -60 -19 -1074 -19 -1134
0 -91 27 -184 118 -215 210 -10 29 -13 298 -16 1184 l-3 1147 -687 3 -687 3
-68 33 c-79 39 -136 103 -162 183 -23 69 -17 168 14 234 19 40 228 254 1090
1118 586 588 1086 1083 1111 1102 25 18 65 40 90 49 62 22 169 16 235 -14z"/>
</g>
</svg>
